# xmcd
#
# Track frame offsets:
#	150
#	11587
#	23585
#	32787
#	42252
#	53415
#	64707
#	74572
#	89650
#	101297
#	113690
#	126020
#	137790
#	147212
#	157102
#	166157
#	176747
#	186570
#	196475
#	209565
#	215587
#	227742
#	239305
#	251000
#	260207
#	272500
#	287085
#	298035
#	309220
#	320437
#	333565
#
# Disc length: 4595 seconds
#
# Revision: 0
# Processed by: cddbd v1.4PL0 Copyright (c) Steve Scherf et al.
# Submitted via: audiograbber 1.81.03
#
DISCID=d811f11f
DTITLE=Tex Ritter - Have I Stayed Away Too Long - BCD 16239
DYEAR=2003
DGENRE=Country
TTITLE0=I Hang My Head And Cry - 1946
TTITLE1=Fort Worth Jail - 1946
TTITLE2=Too Late To Worry, Too Blue To Cry - 1946
TTITLE3=You Brought Sorrow To My Heart - 1946
TTITLE4=When My Blue Moon Turns To Gold Again - 1946
TTITLE5=Careless Darlin' - 1946
TTITLE6=Shame On You - 1946
TTITLE7=I Wish I Had Never Met Sunshine - 1946
TTITLE8=With Tears In My Eyes - 1946
TTITLE9=Detour - 1946
TTITLE10=One True Heart - 1946
TTITLE11=Brushy Mountain - 1946
TTITLE12=I'll Wait For You, Dear - 1946
TTITLE13=Poor Unwanted Heart - 1946
TTITLE14=Why Did It End This Way - 1946
TTITLE15=Tweedle O'Twill - 1946
TTITLE16=It's Been So Long Darling - 1946
TTITLE17=Walking The Floor Over You - 1946
TTITLE18=Too Little, Too Late - 1946
TTITLE19=My Darling Clementine - 1946
TTITLE20=Make Room In Your Heart For A Friend - 1946
TTITLE21=Sweethearts Or Strangers - 1946
TTITLE22=Live And Let Live - 1946
TTITLE23=It Makes No Difference Now - 1946
TTITLE24=Please Don't Leave Me - 1946
TTITLE25=I Dreamed That My Daddy Came Home - 1946
TTITLE26=I'll Just Kiss Your Picture Goodnight - 1946
TTITLE27=In Your Life There's No Room For Me - 1946
TTITLE28=Forget Me Not - 1946
TTITLE29=When You Leave Don't Slam The Door - 1946
TTITLE30=Teach Me To Forget - 1946
EXTD=Bear Family - BCD 16239  CD 2
EXTT0=
EXTT1=
EXTT2=
EXTT3=
EXTT4=
EXTT5=
EXTT6=
EXTT7=
EXTT8=
EXTT9=
EXTT10=
EXTT11=
EXTT12=
EXTT13=
EXTT14=
EXTT15=
EXTT16=
EXTT17=
EXTT18=
EXTT19=
EXTT20=
EXTT21=
EXTT22=
EXTT23=
EXTT24=
EXTT25=
EXTT26=
EXTT27=
EXTT28=
EXTT29=
EXTT30=
PLAYORDER=
